{
	"asset":{
		"generator":"Khronos glTF Blender I/O v4.1.63",
		"version":"2.0"
	},
	"extensionsUsed":[
		"KHR_materials_specular",
		"KHR_materials_ior"
	],
	"scene":0,
	"scenes":[
		{
			"name":"Scene",
			"nodes":[
				0
			]
		}
	],
	"nodes":[
		{
			"mesh":0,
			"name":"TorHammer"
		}
	],
	"materials":[
		{
			"doubleSided":true,
			"emissiveFactor":[
				1,
				1,
				1
			],
			"emissiveTexture":{
				"index":0
			},
			"extensions":{
				"KHR_materials_specular":{
					"specularColorFactor":[
						2.0,
						2.0,
						2.0
					]
				},
				"KHR_materials_ior":{
					"ior":1.4500000476837158
				}
			},
			"name":"3.001",
			"normalTexture":{
				"index":1
			},
			"pbrMetallicRoughness":{
				"baseColorTexture":{
					"index":2
				},
				"metallicRoughnessTexture":{
					"index":3
				}
			}
		}
	],
	"meshes":[
		{
			"name":"8.011",
			"primitives":[
				{
					"attributes":{
						"POSITION":0,
						"NORMAL":1,
						"TEXCOORD_0":2
					},
					"indices":3,
					"material":0
				}
			]
		}
	],
	"textures":[
		{
			"sampler":0,
			"source":0
		},
		{
			"sampler":0,
			"source":1
		},
		{
			"sampler":0,
			"source":2
		},
		{
			"sampler":0,
			"source":3
		}
	],
	"images":[
		{
			"mimeType":"image/png",
			"name":"3.001_Emissive",
			"uri":"3_001_Emissive.png"
		},
		{
			"mimeType":"image/png",
			"name":"3.001_Normal_OpenGL",
			"uri":"3_001_Normal_OpenGL.png"
		},
		{
			"mimeType":"image/png",
			"name":"3.001_Base_color",
			"uri":"3_001_Base_color.png"
		},
		{
			"mimeType":"image/png",
			"name":"3.001_Metallic-3.001_Roughness",
			"uri":"3_001_Metallic-3_001_Roughness.png"
		}
	],
	"accessors":[
		{
			"bufferView":0,
			"componentType":5126,
			"count":5914,
			"max":[
				0.025444170460104942,
				0.12932641804218292,
				0.01240739319473505
			],
			"min":[
				-0.0254135150462389,
				6.502866744995117e-05,
				-0.012581604532897472
			],
			"type":"VEC3"
		},
		{
			"bufferView":1,
			"componentType":5126,
			"count":5914,
			"type":"VEC3"
		},
		{
			"bufferView":2,
			"componentType":5126,
			"count":5914,
			"type":"VEC2"
		},
		{
			"bufferView":3,
			"componentType":5123,
			"count":17418,
			"type":"SCALAR"
		}
	],
	"bufferViews":[
		{
			"buffer":0,
			"byteLength":70968,
			"byteOffset":0,
			"target":34962
		},
		{
			"buffer":0,
			"byteLength":70968,
			"byteOffset":70968,
			"target":34962
		},
		{
			"buffer":0,
			"byteLength":47312,
			"byteOffset":141936,
			"target":34962
		},
		{
			"buffer":0,
			"byteLength":34836,
			"byteOffset":189248,
			"target":34963
		}
	],
	"samplers":[
		{
			"magFilter":9729,
			"minFilter":9987
		}
	],
	"buffers":[
		{
			"byteLength":224084,
			"uri":"TorHammer.bin"
		}
	]
}
